# Blender 4.5.2 LTS
# www.blender.org
o Cylinder
v -0.500000 0.100000 -0.866025
v -0.500000 0.300000 -0.866025
v 0.500000 0.100000 -0.866025
v 0.500000 0.300000 -0.866025
v 1.000000 0.100000 0.000000
v 1.000000 0.300000 0.000000
v 0.500000 0.100000 0.866025
v 0.500000 0.300000 0.866025
v -0.500000 0.100000 0.866025
v -0.500000 0.300000 0.866025
v -1.000000 0.100000 -0.000000
v -1.000000 0.300000 -0.000000
v 0.400000 0.300000 -0.692820
v -0.800000 0.300000 -0.000000
v 0.400000 0.300000 0.692820
v -0.400000 0.300000 0.692820
v 0.800000 0.300000 0.000000
v -0.400000 0.300000 -0.692820
v -0.400000 0.100000 -0.692820
v 0.800000 0.100000 0.000000
v -0.400000 0.100000 0.692820
v -0.800000 0.100000 -0.000000
v 0.400000 0.100000 -0.692820
v 0.400000 0.100000 0.692820
vn -0.0000 -0.0000 -1.0000
vn 0.8660 -0.0000 -0.5000
vn 0.8660 -0.0000 0.5000
vn -0.0000 -0.0000 1.0000
vn -0.0000 1.0000 -0.0000
vn -0.8660 -0.0000 0.5000
vn -0.8660 -0.0000 -0.5000
vn -0.0000 -1.0000 -0.0000
vt 1.000000 0.500000
vt 1.000000 1.000000
vt 0.833333 1.000000
vt 0.833333 0.500000
vt 0.666667 1.000000
vt 0.666667 0.500000
vt 0.500000 1.000000
vt 0.500000 0.500000
vt 0.333333 1.000000
vt 0.333333 0.500000
vt 0.250000 0.058000
vt 0.250000 0.010000
vt 0.457846 0.130000
vt 0.416277 0.154000
vt 0.250000 0.442000
vt 0.250000 0.490000
vt 0.042154 0.370000
vt 0.083723 0.346000
vt 0.166667 1.000000
vt 0.166667 0.500000
vt -0.000000 1.000000
vt -0.000000 0.500000
vt 0.750000 0.442000
vt 0.750000 0.490000
vt 0.957846 0.370000
vt 0.916277 0.346000
vt 0.750000 0.058000
vt 0.750000 0.010000
vt 0.542154 0.130000
vt 0.583723 0.154000
vt 0.833333 0.718750
vt 0.833333 0.781250
vt 1.000000 0.781250
vt 1.000000 0.718750
vt 0.666667 0.781250
vt 0.666667 0.718750
vt 0.500000 0.781250
vt 0.500000 0.718750
vt 0.333333 0.781250
vt 0.333333 0.718750
vt 0.166667 0.718750
vt 0.166667 0.781250
vt -0.000000 0.718750
vt -0.000000 0.781250
vt 0.416277 0.346000
vt 0.457846 0.370000
vt 0.083723 0.154000
vt 0.042154 0.130000
vt 0.957846 0.130000
vt 0.916277 0.154000
vt 0.542154 0.370000
vt 0.583723 0.346000
s 1
f 1/1/1 2/2/1 4/3/1 3/4/1
f 3/4/2 4/3/2 6/5/2 5/6/2
f 5/6/3 6/5/3 8/7/3 7/8/3
f 7/8/4 8/7/4 10/9/4 9/10/4
f 15/11/5 8/12/5 6/13/5 17/14/5
f 18/15/5 2/16/5 12/17/5 14/18/5
f 9/10/6 10/9/6 12/19/6 11/20/6
f 11/20/7 12/19/7 2/21/7 1/22/7
f 19/23/8 1/24/8 3/25/8 23/26/8
f 24/27/8 7/28/8 9/29/8 21/30/8
f 23/31/4 13/32/4 18/33/4 19/34/4
f 17/35/6 13/32/6 23/31/6 20/36/6
f 15/37/7 17/35/7 20/36/7 24/38/7
f 16/39/1 15/37/1 24/38/1 21/40/1
f 22/41/2 14/42/2 16/39/2 21/40/2
f 19/43/3 18/44/3 14/42/3 22/41/3
f 13/45/5 4/46/5 2/16/5 18/15/5
f 17/14/5 6/13/5 4/46/5 13/45/5
f 16/47/5 10/48/5 8/12/5 15/11/5
f 14/18/5 12/17/5 10/48/5 16/47/5
f 23/26/8 3/25/8 5/49/8 20/50/8
f 20/50/8 5/49/8 7/28/8 24/27/8
f 21/30/8 9/29/8 11/51/8 22/52/8
f 22/52/8 11/51/8 1/24/8 19/23/8
