# Blender 4.5.2 LTS
# www.blender.org
o Mark
v -0.500000 0.100000 -0.866025
v -0.500000 0.300000 -0.866025
v 0.500000 0.100000 -0.866025
v 0.500000 0.300000 -0.866025
v 1.000000 0.100000 -0.000000
v 1.000000 0.300000 -0.000000
v 0.500000 0.100000 0.866025
v 0.500000 0.300000 0.866025
v -0.500000 0.100000 0.866025
v -0.500000 0.300000 0.866025
v -1.000000 0.100000 -0.000000
v -1.000000 0.300000 -0.000000
v 0.400000 0.300000 -0.692820
v -0.800000 0.300000 -0.000000
v 0.400000 0.300000 0.692820
v -0.400000 0.300000 0.692820
v 0.800000 0.300000 -0.000000
v -0.400000 0.300000 -0.692820
v -0.400000 0.100000 -0.692820
v 0.800000 0.100000 -0.000000
v -0.400000 0.100000 0.692820
v -0.800000 0.100000 -0.000000
v 0.400000 0.100000 -0.692820
v 0.400000 0.100000 0.692820
v 0.318335 0.300000 -0.866025
v -0.318336 0.300000 -0.866025
v -0.318336 0.100000 -0.866025
v 0.318335 0.100000 -0.866025
v 0.909168 0.300000 0.157326
v 0.590832 0.300000 0.708699
v 0.909168 0.100000 0.157326
v 0.590832 0.100000 0.708699
v 0.727145 0.300000 0.126188
v 0.472855 0.300000 0.566632
v -0.909168 0.300000 0.157326
v -0.590832 0.300000 0.708699
v -0.909168 0.100000 0.157326
v -0.590832 0.100000 0.708699
v -0.254291 0.100000 -0.692820
v 0.254291 0.100000 -0.692820
v -0.254291 0.300000 -0.692820
v 0.254291 0.300000 -0.692820
v 0.727145 0.100000 0.126188
v 0.472855 0.100000 0.566632
v -0.727145 0.300000 0.126188
v -0.472854 0.300000 0.566632
v -0.727145 0.100000 0.126188
v -0.472854 0.100000 0.566632
v 0.000000 0.110638 -0.677679
v 0.000000 0.289362 -0.677679
v -0.269800 0.110638 -1.211720
v -0.269800 0.289362 -1.211720
v 0.000000 0.110638 -0.677679
v 0.000000 0.289362 -0.677679
v 0.269800 0.110638 -1.211720
v 0.269800 0.289362 -1.211720
v -0.586887 0.110638 0.338840
v -0.586887 0.289362 0.338840
v -0.914480 0.110638 0.839514
v -0.914480 0.289362 0.839514
v -0.586887 0.110638 0.338840
v -0.586887 0.289362 0.338840
v -1.184280 0.110638 0.372206
v -1.184280 0.289362 0.372206
v 0.586887 0.110638 0.338840
v 0.586887 0.289362 0.338840
v 1.184280 0.110638 0.372206
v 1.184280 0.289362 0.372206
v 0.586887 0.110638 0.338840
v 0.586887 0.289362 0.338840
v 0.914480 0.110638 0.839514
v 0.914480 0.289362 0.839514
vn -0.0000 -0.0000 -1.0000
vn 0.8660 -0.0000 -0.5000
vn 0.8660 -0.0000 0.5000
vn -0.0000 -0.0000 1.0000
vn -0.0000 1.0000 -0.0000
vn -0.8660 -0.0000 0.5000
vn -0.8660 -0.0000 -0.5000
vn -0.0000 -1.0000 -0.0000
vn -0.1686 -0.0000 0.9857
vn 0.7693 -0.0000 -0.6389
vn 0.9379 -0.0000 -0.3468
vn -0.9379 -0.0000 -0.3468
vn -0.7693 -0.0000 -0.6389
vn 0.1686 -0.0000 0.9857
vn -0.8926 -0.0000 0.4509
vn 0.8926 -0.0000 0.4509
vn 0.8368 -0.0000 0.5475
vn -0.0558 -0.0000 -0.9984
vn 0.0558 -0.0000 -0.9984
vn -0.8368 -0.0000 0.5475
vt 0.833333 1.000000
vt 0.833333 0.500000
vt 0.863611 0.500000
vt 0.863611 1.000000
vt 1.000000 0.500000
vt 1.000000 1.000000
vt 0.969723 1.000000
vt 0.969723 0.500000
vt 0.666667 1.000000
vt 0.666667 0.500000
vt 0.530277 1.000000
vt 0.500000 1.000000
vt 0.500000 0.500000
vt 0.530277 0.500000
vt 0.636389 0.500000
vt 0.636390 1.000000
vt 0.333333 1.000000
vt 0.333333 0.500000
vt 0.457846 0.130000
vt 0.416277 0.154000
vt 0.385992 0.136515
vt 0.420088 0.108200
vt 0.250000 0.058000
vt 0.250000 0.010000
vt 0.287758 0.031800
vt 0.280285 0.075485
vt 0.250000 0.442000
vt 0.250000 0.490000
vt 0.042154 0.370000
vt 0.083723 0.346000
vt 0.166667 1.000000
vt 0.166667 0.500000
vt 0.196944 0.500000
vt 0.196944 1.000000
vt 0.303056 0.500000
vt 0.303056 1.000000
vt -0.000000 1.000000
vt -0.000000 0.500000
vt 0.920088 0.391800
vt 0.957846 0.370000
vt 0.916277 0.346000
vt 0.885992 0.363485
vt 0.750000 0.442000
vt 0.750000 0.490000
vt 0.787758 0.468200
vt 0.780285 0.424515
vt 0.750000 0.058000
vt 0.750000 0.010000
vt 0.542154 0.130000
vt 0.583723 0.154000
vt 1.000000 0.781250
vt 1.000000 0.718750
vt 0.969644 0.718750
vt 0.969644 0.781250
vt 0.833333 0.718750
vt 0.833333 0.781250
vt 0.863689 0.781250
vt 0.863689 0.718750
vt 0.666667 0.781250
vt 0.666667 0.718750
vt 0.636311 0.718750
vt 0.636311 0.781250
vt 0.530356 0.718750
vt 0.500000 0.718750
vt 0.500000 0.781250
vt 0.530356 0.781250
vt 0.333333 0.781250
vt 0.333333 0.718750
vt 0.302977 0.781250
vt 0.302977 0.718750
vt 0.197023 0.718750
vt 0.166667 0.718750
vt 0.166667 0.781250
vt 0.197023 0.781250
vt -0.000000 0.718750
vt -0.000000 0.781250
vt 0.280285 0.424515
vt 0.287758 0.468200
vt 0.385992 0.363485
vt 0.416277 0.346000
vt 0.457846 0.370000
vt 0.420088 0.391800
vt 0.083723 0.154000
vt 0.042154 0.130000
vt 0.042154 0.173599
vt 0.083723 0.188970
vt 0.083723 0.311030
vt 0.042154 0.326401
vt 0.957846 0.130000
vt 0.916277 0.154000
vt 0.780285 0.075485
vt 0.787758 0.031800
vt 0.920088 0.108200
vt 0.885992 0.136515
vt 0.542154 0.326401
vt 0.542154 0.370000
vt 0.583723 0.346000
vt 0.583723 0.311030
vt 0.583723 0.188970
vt 0.542154 0.173599
vt 0.483411 0.139973
vt 0.514502 0.139973
vt 0.523037 0.099857
vt 0.482396 0.099857
vt 0.566238 0.650143
vt 0.557965 0.610027
vt 0.528800 0.610027
vt 0.532867 0.650143
vt 0.513298 0.099857
vt 0.511043 0.139973
vt 0.543324 0.139973
vt 0.550529 0.099857
vt 0.516675 0.610027
vt 0.518898 0.650143
vt 0.554958 0.650143
vt 0.548316 0.610027
vt 0.555510 0.099857
vt 0.519570 0.099857
vt 0.517352 0.139973
vt 0.548902 0.139973
vt 0.533749 0.650143
vt 0.566793 0.650143
vt 0.560786 0.610027
vt 0.531579 0.610027
vt 0.375000 0.000000
vt 0.625000 0.000000
vt 0.625000 0.250000
vt 0.375000 0.250000
vt 0.625000 0.500000
vt 0.375000 0.500000
vt 0.625000 0.750000
vt 0.375000 0.750000
vt 0.625000 1.000000
vt 0.375000 1.000000
vt 0.125000 0.500000
vt 0.125000 0.750000
vt 0.875000 0.500000
vt 0.875000 0.750000
s 1
f 4/1/1 3/2/1 28/3/1 25/4/1
f 1/5/1 2/6/1 26/7/1 27/8/1
f 3/2/2 4/1/2 6/9/2 5/10/2
f 30/11/3 8/12/3 7/13/3 32/14/3
f 31/15/3 5/10/3 6/9/3 29/16/3
f 7/13/4 8/12/4 10/17/4 9/18/4
f 6/19/5 17/20/5 33/21/5 29/22/5
f 15/23/5 8/24/5 30/25/5 34/26/5
f 18/27/5 2/28/5 12/29/5 14/30/5
f 12/31/6 11/32/6 37/33/6 35/34/6
f 38/35/6 9/18/6 10/17/6 36/36/6
f 11/32/7 12/31/7 2/37/7 1/38/7
f 28/39/8 3/40/8 23/41/8 40/42/8
f 19/43/8 1/44/8 27/45/8 39/46/8
f 24/47/8 7/48/8 9/49/8 21/50/8
f 18/51/4 19/52/4 39/53/4 41/54/4
f 23/55/4 13/56/4 42/57/4 40/58/4
f 17/59/6 13/56/6 23/55/6 20/60/6
f 17/59/7 20/60/7 43/61/7 33/62/7
f 44/63/7 24/64/7 15/65/7 34/66/7
f 16/67/1 15/65/1 24/64/1 21/68/1
f 46/69/2 16/67/2 21/68/2 48/70/2
f 47/71/2 22/72/2 14/73/2 45/74/2
f 19/75/3 18/76/3 14/73/3 22/72/3
f 2/28/5 18/27/5 41/77/5 26/78/5
f 42/79/5 13/80/5 4/81/5 25/82/5
f 17/20/5 6/19/5 4/81/5 13/80/5
f 16/83/5 10/84/5 8/24/5 15/23/5
f 36/85/5 10/84/5 16/83/5 46/86/5
f 45/87/5 14/30/5 12/29/5 35/88/5
f 23/41/8 3/40/8 5/89/8 20/90/8
f 7/48/8 24/47/8 44/91/8 32/92/8
f 20/90/8 5/89/8 31/93/8 43/94/8
f 37/95/8 11/96/8 22/97/8 47/98/8
f 48/99/8 21/50/8 9/49/8 38/100/8
f 22/97/8 11/96/8 1/44/8 19/43/8
s 0
f 31/101/9 29/102/9 33/103/9 43/104/9
f 34/105/10 30/106/10 32/107/10 44/108/10
f 39/109/11 27/110/11 26/111/11 41/112/11
f 28/113/12 40/114/12 42/115/12 25/116/12
f 46/117/13 48/118/13 38/119/13 36/120/13
f 47/121/14 45/122/14 35/123/14 37/124/14
f 49/125/15 50/126/15 52/127/15 51/128/15
f 51/128/1 52/127/1 56/129/1 55/130/1
f 55/130/16 56/129/16 54/131/16 53/132/16
f 53/132/4 54/131/4 50/133/4 49/134/4
f 51/135/8 55/130/8 53/132/8 49/136/8
f 56/129/5 52/137/5 50/138/5 54/131/5
f 57/125/17 58/126/17 60/127/17 59/128/17
f 59/128/6 60/127/6 64/129/6 63/130/6
f 63/130/18 64/129/18 62/131/18 61/132/18
f 61/132/4 62/131/4 58/133/4 57/134/4
f 59/135/8 63/130/8 61/132/8 57/136/8
f 64/129/5 60/137/5 58/138/5 62/131/5
f 65/125/19 66/126/19 68/127/19 67/128/19
f 67/128/3 68/127/3 72/129/3 71/130/3
f 71/130/20 72/129/20 70/131/20 69/132/20
f 69/132/4 70/131/4 66/133/4 65/134/4
f 67/135/8 71/130/8 69/132/8 65/136/8
f 72/129/5 68/137/5 66/138/5 70/131/5
