# Blender 4.5.3 LTS
# www.blender.org
o Cylinder.001
v 0.000000 1.000000 -0.884530
v 0.086603 0.900000 -0.950000
v -0.086603 0.900000 -0.950000
v 0.043244 0.986640 -0.914393
v -0.043244 0.986640 -0.914393
v 0.000000 0.973663 -0.941786
v 0.031788 0.900000 -0.971116
v 0.075033 0.949934 -0.938424
v 0.022380 0.947821 -0.958705
v -0.075033 0.949934 -0.938424
v -0.031788 0.900000 -0.971116
v -0.022380 0.947821 -0.958705
v 0.766025 1.000000 -0.442265
v 0.866025 0.900000 -0.400000
v 0.779423 0.900000 -0.550000
v 0.813510 0.986640 -0.419746
v 0.770265 0.986640 -0.494647
v 0.815611 0.973663 -0.470893
v 0.856906 0.900000 -0.458029
v 0.850216 0.949934 -0.404232
v 0.841453 0.947821 -0.459971
v 0.775183 0.949934 -0.534193
v 0.825117 0.900000 -0.513088
v 0.819073 0.947821 -0.498734
v 0.766025 1.000000 0.442265
v 0.779423 0.900000 0.550000
v 0.866025 0.900000 0.400000
v 0.770265 0.986640 0.494647
v 0.813510 0.986640 0.419746
v 0.815611 0.973663 0.470893
v 0.825117 0.900000 0.513088
v 0.775183 0.949934 0.534193
v 0.819073 0.947821 0.498734
v 0.850216 0.949934 0.404232
v 0.856906 0.900000 0.458029
v 0.841453 0.947821 0.459971
v -0.000000 1.000000 0.884530
v -0.086603 0.900000 0.950000
v 0.086603 0.900000 0.950000
v -0.043244 0.986640 0.914393
v 0.043244 0.986640 0.914393
v 0.000000 0.973663 0.941786
v -0.031788 0.900000 0.971116
v -0.075033 0.949934 0.938424
v -0.022380 0.947821 0.958705
v 0.075033 0.949934 0.938424
v 0.031788 0.900000 0.971116
v 0.022380 0.947821 0.958705
v -0.766025 1.000000 0.442265
v -0.866025 0.900000 0.400000
v -0.779423 0.900000 0.550000
v -0.813510 0.986640 0.419746
v -0.770265 0.986640 0.494647
v -0.815611 0.973663 0.470893
v -0.856906 0.900000 0.458029
v -0.850216 0.949934 0.404232
v -0.841453 0.947821 0.459971
v -0.775183 0.949934 0.534193
v -0.825117 0.900000 0.513088
v -0.819073 0.947821 0.498734
v -0.766025 1.000000 -0.442265
v -0.779423 0.900000 -0.550000
v -0.866025 0.900000 -0.400000
v -0.770265 0.986640 -0.494647
v -0.813510 0.986640 -0.419746
v -0.815611 0.973663 -0.470893
v -0.825117 0.900000 -0.513088
v -0.775183 0.949934 -0.534193
v -0.819073 0.947821 -0.498734
v -0.850216 0.949934 -0.404232
v -0.856906 0.900000 -0.458029
v -0.841453 0.947821 -0.459971
v 0.000000 1.000000 -0.849979
v 0.736103 1.000000 -0.424989
v 0.736103 1.000000 0.424989
v -0.000000 1.000000 0.849979
v -0.736103 1.000000 0.424989
v -0.736103 1.000000 -0.424989
vn -0.0000 0.9769 -0.2139
vn 0.1884 0.8501 -0.4918
vn -0.0000 0.7469 -0.6649
vn -0.1884 0.8501 -0.4918
vn 0.3688 0.5068 -0.7792
vn 0.1658 0.4540 -0.8754
vn 0.4136 0.2982 -0.8603
vn 0.1875 0.2778 -0.9422
vn -0.1875 0.2778 -0.9422
vn -0.1658 0.4540 -0.8754
vn -0.4136 0.2982 -0.8603
vn -0.3688 0.5068 -0.7792
vn 0.1852 0.9769 -0.1069
vn 0.5201 0.8501 -0.0828
vn 0.5758 0.7469 -0.3325
vn 0.3317 0.8501 -0.4090
vn 0.8592 0.5068 -0.0703
vn 0.8411 0.4540 -0.2941
vn 0.9518 0.2982 -0.0720
vn 0.9097 0.2778 -0.3087
vn 0.7222 0.2778 -0.6335
vn 0.6753 0.4540 -0.5813
vn 0.5382 0.2982 -0.7883
vn 0.4905 0.5068 -0.7090
vn 0.1852 0.9769 0.1069
vn 0.3317 0.8501 0.4090
vn 0.5758 0.7469 0.3325
vn 0.5201 0.8501 0.0828
vn 0.4905 0.5068 0.7090
vn 0.6753 0.4540 0.5813
vn 0.5382 0.2982 0.7883
vn 0.7222 0.2778 0.6335
vn 0.9097 0.2778 0.3087
vn 0.8411 0.4540 0.2941
vn 0.9518 0.2982 0.0720
vn 0.8592 0.5068 0.0703
vn -0.0000 0.9769 0.2139
vn -0.1884 0.8501 0.4918
vn -0.0000 0.7469 0.6649
vn 0.1884 0.8501 0.4918
vn -0.3688 0.5068 0.7792
vn -0.1658 0.4540 0.8754
vn -0.4136 0.2982 0.8603
vn -0.1875 0.2778 0.9422
vn 0.1875 0.2778 0.9422
vn 0.1658 0.4540 0.8754
vn 0.4136 0.2982 0.8603
vn 0.3688 0.5068 0.7792
vn -0.1852 0.9769 0.1069
vn -0.5201 0.8501 0.0828
vn -0.5758 0.7469 0.3325
vn -0.3317 0.8501 0.4090
vn -0.8592 0.5068 0.0703
vn -0.8411 0.4540 0.2941
vn -0.9518 0.2982 0.0720
vn -0.9097 0.2778 0.3087
vn -0.7222 0.2778 0.6335
vn -0.6753 0.4540 0.5813
vn -0.5382 0.2982 0.7883
vn -0.4905 0.5068 0.7090
vn -0.1852 0.9769 -0.1069
vn -0.3317 0.8501 -0.4090
vn -0.5758 0.7469 -0.3325
vn -0.5201 0.8501 -0.0828
vn -0.4905 0.5068 -0.7090
vn -0.6753 0.4540 -0.5813
vn -0.5382 0.2982 -0.7883
vn -0.7222 0.2778 -0.6335
vn -0.9097 0.2778 -0.3087
vn -0.8411 0.4540 -0.2941
vn -0.9518 0.2982 -0.0720
vn -0.8592 0.5068 -0.0703
vn -0.0000 1.0000 -0.0000
vt 0.250000 0.462287
vt 0.260379 0.469454
vt 0.250000 0.476029
vt 0.239621 0.469454
vt 0.269905 0.478508
vt 0.258320 0.485197
vt 0.983333 0.975000
vt 1.000000 0.975000
vt 0.993328 1.000000
vt 0.984039 1.000000
vt -0.000000 0.975000
vt 0.006995 0.975000
vt 0.006671 1.000000
vt -0.003336 1.000000
vt 0.016667 0.975000
vt 0.015961 1.000000
vt 0.230095 0.478508
vt 0.241680 0.485197
vt 0.433846 0.356144
vt 0.445242 0.350739
vt 0.445747 0.363014
vt 0.434864 0.368715
vt 0.457846 0.347016
vt 0.457846 0.360393
vt 0.816667 0.975000
vt 0.826338 0.975000
vt 0.826662 1.000000
vt 0.817372 1.000000
vt 0.840329 0.975000
vt 0.840005 1.000000
vt 0.850000 0.975000
vt 0.849295 1.000000
vt 0.437941 0.381492
vt 0.449526 0.374803
vt 0.433846 0.143856
vt 0.434864 0.131285
vt 0.445747 0.136986
vt 0.445242 0.149261
vt 0.437941 0.118508
vt 0.449526 0.125197
vt 0.650000 0.975000
vt 0.659671 0.975000
vt 0.659995 1.000000
vt 0.650705 1.000000
vt 0.673662 0.975000
vt 0.673338 1.000000
vt 0.683333 0.975000
vt 0.682628 1.000000
vt 0.457846 0.152984
vt 0.457846 0.139607
vt 0.250000 0.037713
vt 0.239621 0.030546
vt 0.250000 0.023971
vt 0.260379 0.030546
vt 0.230095 0.021492
vt 0.241680 0.014803
vt 0.483333 0.975000
vt 0.493005 0.975000
vt 0.493328 1.000000
vt 0.484039 1.000000
vt 0.506995 0.975000
vt 0.506671 1.000000
vt 0.516667 0.975000
vt 0.515961 1.000000
vt 0.269905 0.021492
vt 0.258320 0.014803
vt 0.066154 0.143856
vt 0.054758 0.149261
vt 0.054253 0.136986
vt 0.065136 0.131285
vt 0.042154 0.152984
vt 0.042154 0.139607
vt 0.316667 0.975000
vt 0.326338 0.975000
vt 0.326662 1.000000
vt 0.317372 1.000000
vt 0.340328 0.975000
vt 0.340005 1.000000
vt 0.350000 0.975000
vt 0.349295 1.000000
vt 0.062059 0.118508
vt 0.050474 0.125197
vt 0.066154 0.356144
vt 0.065136 0.368715
vt 0.054253 0.363014
vt 0.054758 0.350739
vt 0.062059 0.381492
vt 0.050474 0.374804
vt 0.150000 0.975000
vt 0.159671 0.975000
vt 0.159995 1.000000
vt 0.150705 1.000000
vt 0.173662 0.975000
vt 0.173338 1.000000
vt 0.183333 0.975000
vt 0.182628 1.000000
vt 0.042154 0.347016
vt 0.042154 0.360393
s 1
f 1/1/1 4/2/2 6/3/3 5/4/4
f 4/2/2 8/5/5 9/6/6 6/3/3
f 2/7/7 7/8/8 9/9/6 8/10/5
f 7/11/8 11/12/9 12/13/10 9/14/6
f 3/15/11 10/16/12 12/13/10 11/12/9
f 10/17/12 5/4/4 6/3/3 12/18/10
f 6/3/3 9/6/6 12/18/10
f 13/19/13 16/20/14 18/21/15 17/22/16
f 16/20/14 20/23/17 21/24/18 18/21/15
f 14/25/19 19/26/20 21/27/18 20/28/17
f 19/26/20 23/29/21 24/30/22 21/27/18
f 15/31/23 22/32/24 24/30/22 23/29/21
f 22/33/24 17/22/16 18/21/15 24/34/22
f 18/21/15 21/24/18 24/34/22
f 25/35/25 28/36/26 30/37/27 29/38/28
f 28/36/26 32/39/29 33/40/30 30/37/27
f 26/41/31 31/42/32 33/43/30 32/44/29
f 31/42/32 35/45/33 36/46/34 33/43/30
f 27/47/35 34/48/36 36/46/34 35/45/33
f 34/49/36 29/38/28 30/37/27 36/50/34
f 30/37/27 33/40/30 36/50/34
f 37/51/37 40/52/38 42/53/39 41/54/40
f 40/52/38 44/55/41 45/56/42 42/53/39
f 38/57/43 43/58/44 45/59/42 44/60/41
f 43/58/44 47/61/45 48/62/46 45/59/42
f 39/63/47 46/64/48 48/62/46 47/61/45
f 46/65/48 41/54/40 42/53/39 48/66/46
f 42/53/39 45/56/42 48/66/46
f 49/67/49 52/68/50 54/69/51 53/70/52
f 52/68/50 56/71/53 57/72/54 54/69/51
f 50/73/55 55/74/56 57/75/54 56/76/53
f 55/74/56 59/77/57 60/78/58 57/75/54
f 51/79/59 58/80/60 60/78/58 59/77/57
f 58/81/60 53/70/52 54/69/51 60/82/58
f 54/69/51 57/72/54 60/82/58
f 61/83/61 64/84/62 66/85/63 65/86/64
f 64/84/62 68/87/65 69/88/66 66/85/63
f 62/89/67 67/90/68 69/91/66 68/92/65
f 67/90/68 71/93/69 72/94/70 69/91/66
f 63/95/71 70/96/72 72/94/70 71/93/69
f 70/97/72 65/86/64 66/85/63 72/98/70
f 66/85/63 69/88/66 72/98/70
f 15/31/23 2/7/7 8/10/5 22/32/24
f 22/33/24 8/5/5 4/2/2 17/22/16
f 17/22/16 4/2/2 1/1/1 13/19/13
f 27/47/35 14/25/19 20/28/17 34/48/36
f 34/49/36 20/23/17 16/20/14 29/38/28
f 29/38/28 16/20/14 13/19/13 25/35/25
f 39/63/47 26/41/31 32/44/29 46/64/48
f 46/65/48 32/39/29 28/36/26 41/54/40
f 41/54/40 28/36/26 25/35/25 37/51/37
f 51/79/59 38/57/43 44/60/41 58/80/60
f 58/81/60 44/55/41 40/52/38 53/70/52
f 53/70/52 40/52/38 37/51/37 49/67/49
f 63/95/71 50/73/55 56/76/53 70/96/72
f 70/97/72 56/71/53 52/68/50 65/86/64
f 65/86/64 52/68/50 49/67/49 61/83/61
f 3/15/11 62/89/67 68/92/65 10/16/12
f 10/17/12 68/87/65 64/84/62 5/4/4
f 5/4/4 64/84/62 61/83/61 1/1/1
f 13/19/13 1/1/1 73/1/73 74/19/73
s 0
f 74/19/73 73/1/73 78/83/73 77/67/73 76/51/73 75/35/73
s 1
f 1/1/1 61/83/61 78/83/73 73/1/73
f 49/67/49 37/51/37 76/51/73 77/67/73
f 25/35/25 13/19/13 74/19/73 75/35/73
f 61/83/61 49/67/49 77/67/73 78/83/73
f 37/51/37 25/35/25 75/35/73 76/51/73
