# Blender 4.5.2 LTS
# www.blender.org
o Cylinder.001
v 0.000000 1.000000 -0.884530
v 0.086603 0.900000 -0.950000
v -0.086603 0.900000 -0.950000
v 0.766025 1.000000 -0.442265
v 0.866025 0.900000 -0.400000
v 0.779423 0.900000 -0.550000
v 0.766025 1.000000 0.442265
v 0.779423 0.900000 0.550000
v 0.866025 0.900000 0.400000
v 0.000000 1.000000 0.884530
v -0.086603 0.900000 0.950000
v 0.086603 0.900000 0.950000
v -0.766025 1.000000 0.442265
v -0.866025 0.900000 0.400000
v -0.779423 0.900000 0.550000
v -0.766025 1.000000 -0.442265
v -0.779423 0.900000 -0.550000
v -0.866025 0.900000 -0.400000
vn -0.0000 0.5477 -0.8366
vn 0.7246 0.5478 -0.4183
vn 0.7246 0.5478 0.4183
vn -0.0000 0.5477 0.8366
vn -0.7246 0.5478 0.4183
vn -0.7246 0.5478 -0.4183
vn 0.3536 0.7071 -0.6124
vn 0.7071 0.7071 -0.0000
vn 0.3536 0.7071 0.6124
vn -0.3536 0.7071 0.6124
vn -0.7071 0.7071 -0.0000
vn -0.3536 0.7071 -0.6124
vn -0.0000 1.0000 -0.0000
vt 0.250000 0.462287
vt 0.270785 0.478000
vt 0.229215 0.478000
vt 0.433846 0.356144
vt 0.457846 0.346000
vt 0.437062 0.382000
vt 0.433846 0.143856
vt 0.437062 0.118000
vt 0.457846 0.154000
vt 0.250000 0.037713
vt 0.229215 0.022000
vt 0.270785 0.022000
vt 0.066154 0.143856
vt 0.042154 0.154000
vt 0.062939 0.118000
vt 0.066154 0.356144
vt 0.062939 0.382000
vt 0.042154 0.346000
s 1
f 1/1/1 2/2/1 3/3/1
f 4/4/2 5/5/2 6/6/2
f 7/7/3 8/8/3 9/9/3
f 10/10/4 11/11/4 12/12/4
f 13/13/5 14/14/5 15/15/5
f 16/16/6 17/17/6 18/18/6
f 6/6/7 2/2/7 1/1/7 4/4/7
f 9/9/8 5/5/8 4/4/8 7/7/8
f 12/12/9 8/8/9 7/7/9 10/10/9
f 15/15/10 11/11/10 10/10/10 13/13/10
f 18/18/11 14/14/11 13/13/11 16/16/11
f 3/3/12 17/17/12 16/16/12 1/1/12
f 4/4/13 1/1/13 16/16/13 13/13/13 10/10/13 7/7/13
