# Blender 4.5.3 LTS
# www.blender.org
o Cylinder
v -0.086603 -0.900000 -0.950000
v 0.086603 -0.900000 -0.950000
v -0.031788 -0.900000 -0.971116
v 0.031788 -0.900000 -0.971116
v 0.086603 0.900000 -0.950000
v -0.086603 0.900000 -0.950000
v 0.031788 0.900000 -0.971116
v -0.031788 0.900000 -0.971116
v 0.779423 -0.900000 -0.550000
v 0.866025 -0.900000 -0.400000
v 0.825117 -0.900000 -0.513088
v 0.856906 -0.900000 -0.458029
v 0.866025 0.900000 -0.400000
v 0.779423 0.900000 -0.550000
v 0.856906 0.900000 -0.458029
v 0.825117 0.900000 -0.513088
v 0.866025 -0.900000 0.400000
v 0.779423 -0.900000 0.550000
v 0.856906 -0.900000 0.458029
v 0.825117 -0.900000 0.513088
v 0.779423 0.900000 0.550000
v 0.866025 0.900000 0.400000
v 0.825117 0.900000 0.513088
v 0.856906 0.900000 0.458029
v 0.086603 -0.900000 0.950000
v -0.086603 -0.900000 0.950000
v 0.031788 -0.900000 0.971116
v -0.031788 -0.900000 0.971116
v -0.086603 0.900000 0.950000
v 0.086603 0.900000 0.950000
v -0.031788 0.900000 0.971116
v 0.031788 0.900000 0.971116
v -0.779423 -0.900000 0.550000
v -0.866025 -0.900000 0.400000
v -0.825117 -0.900000 0.513088
v -0.856906 -0.900000 0.458029
v -0.866025 0.900000 0.400000
v -0.779423 0.900000 0.550000
v -0.856906 0.900000 0.458029
v -0.825117 0.900000 0.513088
v -0.866025 -0.900000 -0.400000
v -0.779423 -0.900000 -0.550000
v -0.856906 -0.900000 -0.458029
v -0.825117 -0.900000 -0.513088
v -0.779423 0.900000 -0.550000
v -0.866025 0.900000 -0.400000
v -0.825117 0.900000 -0.513088
v -0.856906 0.900000 -0.458029
vn -0.4311 -0.0000 -0.9023
vn 0.4311 -0.0000 -0.9023
vn -0.1828 -0.0000 -0.9831
vn 0.1828 -0.0000 -0.9831
vn 0.5659 -0.0000 -0.8245
vn 0.9970 -0.0000 -0.0779
vn 0.7600 -0.0000 -0.6499
vn 0.9428 -0.0000 -0.3332
vn 0.9970 -0.0000 0.0779
vn 0.5659 -0.0000 0.8245
vn 0.9428 -0.0000 0.3332
vn 0.7600 -0.0000 0.6499
vn 0.4311 -0.0000 0.9023
vn -0.4311 -0.0000 0.9023
vn 0.1828 -0.0000 0.9831
vn -0.1828 -0.0000 0.9831
vn -0.5659 -0.0000 0.8245
vn -0.9970 -0.0000 0.0779
vn -0.7600 -0.0000 0.6499
vn -0.9428 -0.0000 0.3332
vn -0.9970 -0.0000 -0.0779
vn -0.5659 -0.0000 -0.8245
vn -0.9428 -0.0000 -0.3332
vn -0.7600 -0.0000 -0.6499
vt 0.016667 0.525000
vt 0.016667 0.975000
vt 0.006995 0.975000
vt 0.006995 0.525000
vt -0.000000 0.975000
vt -0.000000 0.525000
vt 1.000000 0.525000
vt 1.000000 0.975000
vt 0.983333 0.975000
vt 0.983333 0.525000
vt 0.816667 0.975000
vt 0.816667 0.525000
vt 0.826338 0.525000
vt 0.826338 0.975000
vt 0.840328 0.525000
vt 0.840329 0.975000
vt 0.850000 0.525000
vt 0.850000 0.975000
vt 0.650000 0.975000
vt 0.650000 0.525000
vt 0.659671 0.525000
vt 0.659671 0.975000
vt 0.673662 0.525000
vt 0.673662 0.975000
vt 0.683333 0.525000
vt 0.683333 0.975000
vt 0.483333 0.975000
vt 0.483333 0.525000
vt 0.493005 0.525000
vt 0.493005 0.975000
vt 0.506995 0.525000
vt 0.506995 0.975000
vt 0.516667 0.525000
vt 0.516667 0.975000
vt 0.316667 0.975000
vt 0.316667 0.525000
vt 0.326338 0.525000
vt 0.326338 0.975000
vt 0.340328 0.525000
vt 0.340328 0.975000
vt 0.350000 0.525000
vt 0.350000 0.975000
vt 0.150000 0.975000
vt 0.150000 0.525000
vt 0.159671 0.525000
vt 0.159671 0.975000
vt 0.173662 0.525000
vt 0.173662 0.975000
vt 0.183333 0.525000
vt 0.183333 0.975000
s 1
f 1/1/1 6/2/1 8/3/3 3/4/3
f 3/4/3 8/3/3 7/5/4 4/6/4
f 4/7/4 7/8/4 5/9/2 2/10/2
f 13/11/6 10/12/6 12/13/8 15/14/8
f 15/14/8 12/13/8 11/15/7 16/16/7
f 16/16/7 11/15/7 9/17/5 14/18/5
f 21/19/10 18/20/10 20/21/12 23/22/12
f 23/22/12 20/21/12 19/23/11 24/24/11
f 24/24/11 19/23/11 17/25/9 22/26/9
f 29/27/14 26/28/14 28/29/16 31/30/16
f 31/30/16 28/29/16 27/31/15 32/32/15
f 32/32/15 27/31/15 25/33/13 30/34/13
f 37/35/18 34/36/18 36/37/20 39/38/20
f 39/38/20 36/37/20 35/39/19 40/40/19
f 40/40/19 35/39/19 33/41/17 38/42/17
f 45/43/22 42/44/22 44/45/24 47/46/24
f 47/46/24 44/45/24 43/47/23 48/48/23
f 48/48/23 43/47/23 41/49/21 46/50/21
f 2/10/2 5/9/2 14/18/5 9/17/5
f 42/44/22 45/43/22 6/2/1 1/1/1
f 10/12/6 13/11/6 22/26/9 17/25/9
f 18/20/10 21/19/10 30/34/13 25/33/13
f 26/28/14 29/27/14 38/42/17 33/41/17
f 34/36/18 37/35/18 46/50/21 41/49/21
