# Blender 4.5.3 LTS
# www.blender.org
o Cone
v 0.000000 -0.136339 -1.000000
v 0.642788 -0.136339 -0.766044
v 0.984808 -0.136339 -0.173648
v 0.866025 -0.136339 0.500000
v 0.342020 -0.136339 0.939693
v -0.342020 -0.136339 0.939693
v -0.866025 -0.136339 0.500000
v -0.984808 -0.136339 -0.173648
v -0.642788 -0.136339 -0.766044
v 0.000000 1.863661 0.000000
v 0.000000 -0.273689 -1.000000
v 0.642788 -0.273689 -0.766044
v 0.984808 -0.273689 -0.173648
v 0.866025 -0.273689 0.500000
v 0.342020 -0.273689 0.939693
v -0.342020 -0.273689 0.939693
v -0.866025 -0.273689 0.500000
v -0.984808 -0.273689 -0.173648
v -0.642788 -0.273689 -0.766044
v 0.000000 -0.429440 -0.881631
v 0.566702 -0.429440 -0.675369
v 0.868237 -0.429440 -0.153094
v 0.763515 -0.429440 0.440816
v 0.301536 -0.429440 0.828462
v -0.301536 -0.429440 0.828462
v -0.763515 -0.429440 0.440816
v -0.868237 -0.429440 -0.153094
v -0.566702 -0.429440 -0.675369
v -0.000000 -0.306280 -0.591238
v 0.380041 -0.306280 -0.452915
v 0.582256 -0.306280 -0.102667
v 0.512027 -0.306280 0.295619
v 0.202215 -0.306280 0.555582
v -0.202215 -0.306280 0.555582
v -0.512027 -0.306280 0.295619
v -0.582256 -0.306280 -0.102667
v -0.380041 -0.306280 -0.452915
vn -0.0000 0.2193 -0.9757
vn 0.6271 0.2193 -0.7474
vn 0.9608 0.2193 -0.1694
vn 0.8449 0.2193 0.4878
vn 0.3337 0.2193 0.9168
vn -0.3337 0.2193 0.9168
vn -0.8449 0.2193 0.4878
vn -0.9608 0.2193 -0.1694
vn -0.6271 0.2193 -0.7474
vn -0.0000 1.0000 -0.0000
vn -0.0000 -0.3000 -0.9539
vn 0.6132 -0.3000 -0.7308
vn 0.9395 -0.3000 -0.1657
vn 0.8261 -0.3000 0.4770
vn 0.3263 -0.3000 0.8964
vn -0.3263 -0.3000 0.8964
vn -0.8261 -0.3000 0.4770
vn -0.9395 -0.3000 -0.1657
vn -0.6132 -0.3000 -0.7308
vn -0.0000 -0.9273 -0.3742
vn 0.2405 -0.9273 -0.2867
vn 0.3685 -0.9273 -0.0650
vn 0.3241 -0.9273 0.1871
vn 0.1280 -0.9273 0.3517
vn -0.1280 -0.9273 0.3517
vn -0.3241 -0.9273 0.1871
vn -0.3685 -0.9273 -0.0650
vn -0.2405 -0.9273 -0.2867
vn -0.0000 -0.9706 0.2409
vn -0.1548 -0.9706 0.1845
vn -0.2372 -0.9706 0.0418
vn -0.2086 -0.9706 -0.1204
vn -0.0824 -0.9706 -0.2264
vn 0.0824 -0.9706 -0.2264
vn 0.2086 -0.9706 -0.1204
vn 0.2372 -0.9706 0.0418
vn 0.1548 -0.9706 0.1845
vt 0.250000 0.490000
vt 0.250000 0.250000
vt 0.404269 0.433851
vt 0.486354 0.291676
vt 0.457846 0.130000
vt 0.332085 0.024474
vt 0.167915 0.024474
vt 0.042154 0.130000
vt 0.013646 0.291676
vt 0.095731 0.433851
vt 0.750000 0.490000
vt 0.904269 0.433851
vt 0.986354 0.291676
vt 0.957846 0.130000
vt 0.832085 0.024474
vt 0.667915 0.024474
vt 0.542154 0.130000
vt 0.513646 0.291676
vt 0.595731 0.433851
s 1
f 1/1/1 10/2/10 2/3/2
f 2/3/2 10/2/10 3/4/3
f 3/4/3 10/2/10 4/5/4
f 4/5/4 10/2/10 5/6/5
f 5/6/5 10/2/10 6/7/6
f 6/7/6 10/2/10 7/8/7
f 7/8/7 10/2/10 8/9/8
f 5/6/5 6/7/6 16/7/16 15/6/15
f 8/9/8 10/2/10 9/10/9
f 9/10/9 10/2/10 1/1/1
f 12/3/12 13/4/13 22/4/22 21/3/21
f 7/8/7 8/9/8 18/9/18 17/8/17
f 2/3/2 3/4/3 13/4/13 12/3/12
f 1/1/1 2/3/2 12/3/12 11/1/11
f 9/10/9 1/1/1 11/1/11 19/10/19
f 4/5/4 5/6/5 15/6/15 14/5/14
f 6/7/6 7/8/7 17/8/17 16/7/16
f 8/9/8 9/10/9 19/10/19 18/9/18
f 3/4/3 4/5/4 14/5/14 13/4/13
f 20/1/20 21/3/21 30/3/30 29/1/29
f 19/10/19 11/1/11 20/1/20 28/10/28
f 16/7/16 17/8/17 26/8/26 25/7/25
f 13/4/13 14/5/14 23/5/23 22/4/22
f 17/8/17 18/9/18 27/9/27 26/8/26
f 14/5/14 15/6/15 24/6/24 23/5/23
f 11/1/11 12/3/12 21/3/21 20/1/20
f 18/9/18 19/10/19 28/10/28 27/9/27
f 15/6/15 16/7/16 25/7/25 24/6/24
f 29/11/29 30/12/30 31/13/31 32/14/32 33/15/33 34/16/34 35/17/35 36/18/36 37/19/37
f 27/9/27 28/10/28 37/10/37 36/9/36
f 24/6/24 25/7/25 34/7/34 33/6/33
f 21/3/21 22/4/22 31/4/31 30/3/30
f 28/10/28 20/1/20 29/1/29 37/10/37
f 25/7/25 26/8/26 35/8/35 34/7/34
f 22/4/22 23/5/23 32/5/32 31/4/31
f 26/8/26 27/9/27 36/9/36 35/8/35
f 23/5/23 24/6/24 33/6/33 32/5/32
